<svg width="40" height="40" viewBox="0 0 40 40" fill="none" xmlns="http://www.w3.org/2000/svg">
<path d="M35 31.6667V8.33333C35 6.5 33.5 5 31.6667 5H8.33333C6.5 5 5 6.5 5 8.33333V31.6667C5 33.5 6.5 35 8.33333 35H31.6667C33.5 35 35 33.5 35 31.6667ZM14.8333 23.3L18.3333 27.5167L23.5 20.8667C23.8333 20.4333 24.5 20.4333 24.8333 20.8833L30.6833 28.6833C30.7762 28.8071 30.8327 28.9544 30.8466 29.1085C30.8605 29.2626 30.8312 29.4176 30.762 29.556C30.6928 29.6944 30.5864 29.8108 30.4548 29.8922C30.3231 29.9736 30.1714 30.0167 30.0167 30.0167H10.0333C9.33333 30.0167 8.95 29.2167 9.38333 28.6667L13.5333 23.3333C13.85 22.9 14.4833 22.8833 14.8333 23.3Z" fill="#898787"/>
</svg>
