<svg width="40" height="40" viewBox="0 0 40 40" fill="none" xmlns="http://www.w3.org/2000/svg">
<path d="M21.6668 11.6667H18.3335V18.3334H11.6668V21.6667H18.3335V28.3334H21.6668V21.6667H28.3335V18.3334H21.6668V11.6667ZM20.0002 3.33337C10.8002 3.33337 3.3335 10.8 3.3335 20C3.3335 29.2 10.8002 36.6667 20.0002 36.6667C29.2002 36.6667 36.6668 29.2 36.6668 20C36.6668 10.8 29.2002 3.33337 20.0002 3.33337ZM20.0002 33.3334C12.6502 33.3334 6.66683 27.35 6.66683 20C6.66683 12.65 12.6502 6.66671 20.0002 6.66671C27.3502 6.66671 33.3335 12.65 33.3335 20C33.3335 27.35 27.3502 33.3334 20.0002 33.3334Z" fill="#898787"/>
</svg>
