<svg width="40" height="40" viewBox="0 0 40 40" fill="none" xmlns="http://www.w3.org/2000/svg">
<path d="M4.1665 9.16663C4.1665 10.55 5.28317 11.6666 6.6665 11.6666H12.4998V29.1666C12.4998 30.55 13.6165 31.6666 14.9998 31.6666C16.3832 31.6666 17.4998 30.55 17.4998 29.1666V11.6666H23.3332C24.7165 11.6666 25.8332 10.55 25.8332 9.16663C25.8332 7.78329 24.7165 6.66663 23.3332 6.66663H6.6665C5.28317 6.66663 4.1665 7.78329 4.1665 9.16663ZM33.3332 15H23.3332C21.9498 15 20.8332 16.1166 20.8332 17.5C20.8332 18.8833 21.9498 20 23.3332 20H25.8332V29.1666C25.8332 30.55 26.9498 31.6666 28.3332 31.6666C29.7165 31.6666 30.8332 30.55 30.8332 29.1666V20H33.3332C34.7165 20 35.8332 18.8833 35.8332 17.5C35.8332 16.1166 34.7165 15 33.3332 15Z" fill="#898787"/>
</svg>
