<svg width="40" height="40" viewBox="0 0 40 40" fill="none" xmlns="http://www.w3.org/2000/svg">
<path d="M5.00016 10C4.0835 10 3.3335 10.75 3.3335 11.6667V33.3334C3.3335 35.1667 4.8335 36.6667 6.66683 36.6667H28.3335C29.2502 36.6667 30.0002 35.9167 30.0002 35C30.0002 34.0834 29.2502 33.3334 28.3335 33.3334H8.3335C7.41683 33.3334 6.66683 32.5834 6.66683 31.6667V11.6667C6.66683 10.75 5.91683 10 5.00016 10ZM33.3335 3.33337H13.3335C11.5002 3.33337 10.0002 4.83337 10.0002 6.66671V26.6667C10.0002 28.5 11.5002 30 13.3335 30H33.3335C35.1668 30 36.6668 28.5 36.6668 26.6667V6.66671C36.6668 4.83337 35.1668 3.33337 33.3335 3.33337ZM20.0002 24.1667V9.16671L29.1168 16C29.5668 16.3334 29.5668 17 29.1168 17.3334L20.0002 24.1667Z" fill="#898787"/>
</svg>
